# xmcd
#
# Track frame offsets:
# 150
# 12490
# 26862
# 39985
# 52627
# 65395
# 79340
# 93275
# 106110
# 120025
# 132415
# 144022
# 157210
#
# Disc length: 2276 seconds
#
#
# Revision: 2
# Processed by: cddbd v1.5.1PL0 Copyright (c) Steve Scherf et al.
# Submitted via: FreeRIP 2.941 
#
DISCID=9a08e20d
DTITLE=Little Walter - Blues Like a Feeling
DYEAR=1900
DGENRE=Blues
TTITLE0=Juke
TTITLE1=Sad Hours
TTITLE2=Mean Old World
TTITLE3=Tell Me Mama
TTITLE4=Off The Wall
TTITLE5=Blues With a Feeling
TTITLE6=You're So Fine
TTITLE7=Oh Baby
TTITLE8=You'd Better Watch Yourself
TTITLE9=Last Night
TTITLE10=My Babe
TTITLE11=Roller Coaster
TTITLE12=Key To The Highway
EXTD=
EXTT0=
EXTT1=
EXTT2=
EXTT3=
EXTT4=
EXTT5=
EXTT6=
EXTT7=
EXTT8=
EXTT9=
EXTT10=
EXTT11=
EXTT12=
PLAYORDER=
